<svg width="82" height="82" viewBox="0 0 82 82" fill="none" xmlns="http://www.w3.org/2000/svg">
<g clip-path="url(#clip0_28493_1750)">
<path d="M52.1349 4.96518V5.03966V7.44777V7.52225V10.0048H54.6175H54.692H57.1001H57.1746H59.5827H59.6572H62.1398V7.52225V7.44777V5.03966V4.96518V2.55707V2.48259V0H59.6572H59.5827H57.1001V2.55707H59.5827V4.96518H57.1001V7.44777H54.692V5.03966V4.96518V2.48259H52.2094V0H49.6523V2.55707H52.1349V4.96518Z" fill="#E21E32"/>
<path d="M79.5172 19.8604H79.4427H77.0346H76.9601H74.4775V22.4174H76.9601H77.0346H79.4427V24.9H81.9998V22.4174V22.3429V19.8604H79.5172Z" fill="#E21E32"/>
<path d="M79.5174 29.7911H77.0348V24.8259H71.9952V29.7911H69.5126V32.3482H71.9952V39.7215H69.587V37.2389H64.6219V34.8308H67.1045V32.2737H64.5474V34.7563H62.0648V37.2389H57.1741V34.8308H59.6567V32.3482H62.1393V29.8656H64.6219V24.9004H67.03V27.383H69.587V24.8259H67.1045V22.4178H69.587V19.8607H59.6567V17.4526H62.1393V12.413H47.2437V7.44777H44.6866V9.93037H39.7215V12.4874H42.2041V14.8955H39.7215V17.4526H42.2041V24.8259H39.7959V22.3433H34.8308V19.9352H37.3134V14.8955H34.8308V10.0048H37.3134V7.52225H42.2785V5.03966H44.7611V2.55707H47.2437V0H42.2041V4.96518H37.3134V2.55707H39.7959V0H37.2389V2.48259H34.8308V0H32.2737V2.48259H27.383V0H19.8607V7.52225H22.4178V5.03966H24.8259V9.93037H22.3433V12.413H19.8607V22.4178H24.9004V19.9352H27.383V14.97H29.7911V19.9352H32.2737V22.3433H29.7911V24.8259H27.3085V27.3085H17.4526V24.8259H14.97V22.4178H17.4526V19.8607H14.8955V22.3433H12.4874V19.8607H4.96518V22.4178H12.413V24.8259H9.93037V29.8656H12.4874V24.9004H14.8955V27.383H17.3781V29.7911H14.8955V32.3482H17.3781V34.7563H14.8955V37.3134H17.3781V39.7215H12.4874V37.2389H7.52225V32.2737H4.96518V34.7563H2.55707V27.383H4.96518V29.8656H7.52225V24.8259H2.55707V22.3433H0V24.9004H2.48259V27.3085H0V42.2785H2.48259V44.7611H5.03966V42.2041H2.55707V37.3134H4.96518V39.7959H12.413V42.2041H9.93037V44.6866H7.44777V47.1692H2.48259V49.6518H0V62.1393H2.55707V54.6915H7.52225V52.1344H2.55707V49.7263H7.52225V47.2437H10.0048V44.7611H12.413V47.2437H17.3781V49.6518H9.93037V52.2089H17.3781V54.617H12.413V57.0996H4.96518V62.1393H7.52225V59.6567H14.8955V62.1393H17.4526V59.5822H14.97V57.1741H19.8607V59.6567H27.383V57.1741H32.2737V59.5822H29.7911V69.5126H27.383V62.0648H19.8607V64.6219H22.3433V69.5126H19.8607V77.0348H22.3433V79.5174H24.8259V82H27.383V79.5174H29.7911V82H32.3482V79.5174H34.7563V82H39.7959V79.5174H42.2041V82H44.7611V79.5174H47.2437V77.0348H49.6518V82H52.2089V77.0348H54.617V79.5174H57.1741V77.0348H62.0648V79.4429H59.5822V82H67.1045V79.5174H69.587V76.9603H67.1045V74.4778H64.6219V72.0696H69.5126V74.5522H74.4778V76.9603H71.9952V82H79.5174V79.4429H77.0348V74.5522H79.5174V72.0696H82V67.03H79.5174V64.6219H82V62.0648H79.5174V59.5822H77.0348V57.1741H79.5174V54.617H76.9603V57.0996H69.5126V59.5822H62.1393V49.7263H64.6219V47.2437H67.03V52.1344H64.5474V54.6915H67.1045V52.2089H71.9952V54.6915H74.5522V49.7263H77.0348V47.2437H79.4429V49.7263H82V47.1692H79.5174V44.6866H74.4778V47.1692H72.0696V44.6866H67.1045V42.2785H72.0696V39.7959H74.4778V42.2785H82V37.2389H79.5174V34.8308H82V32.2737H79.5174V29.7911ZM67.03 39.7959V42.2041H64.6219V39.7959H67.03ZM62.0648 39.7959V42.2041H59.6567V39.7959H62.0648ZM57.0996 44.6866H54.617V47.1692H52.2089V42.2041H47.1692V44.7611H49.6518V47.1692H44.7611V42.2041H39.7959V39.7215H37.3134V37.3134H42.2041V39.7959H44.7611V37.3134H47.2437V34.8308H49.6518V39.7959H57.0996V44.6866ZM42.2041 59.5822H39.7215V62.0648H37.3134V57.1741H42.2041V59.5822ZM49.6518 67.03V69.5126H47.2437V64.6219H49.6518V67.03ZM49.7263 74.5522H52.1344V76.9603H49.7263V74.5522ZM44.6866 74.4778H42.2785V72.0696H44.6866V74.4778ZM37.3134 74.5522H39.7215V76.9603H37.3134V74.5522ZM39.7959 69.587H42.2041V71.9952H39.7959V69.587ZM44.6866 69.5126H42.2785V67.1045H44.6866V69.5126ZM34.8308 52.2089H37.2389V57.0996H34.8308V52.2089ZM17.4526 44.7611H19.9352V39.7959H27.383V37.3134H29.8656V34.7563H27.383V27.383H29.8656V24.9004H32.2737V27.383H34.7563V29.7911H29.7911V32.3482H32.2737V39.7215H29.7911V44.6866H24.9004V42.2041H22.3433V44.7611H24.8259V47.1692H17.4526V44.7611ZM22.4178 34.8308H27.3085V37.2389H22.4178V34.8308ZM34.7563 24.8259H32.3482V22.4178H34.7563V24.8259ZM42.2785 29.8656H44.6866V32.3482H47.1692V34.7563H44.6866V37.2389H42.2785V29.8656ZM44.7611 19.9352H47.1692V22.3433H44.7611V19.9352ZM49.7263 19.9352H54.6915V17.4526H57.0996V22.3433H49.7263V19.9352ZM54.617 34.8308V37.2389H52.2089V32.3482H54.617V34.8308ZM57.0996 32.2737H54.6915V29.8656H57.0996V32.2737ZM49.6518 24.8259V27.383H52.1344V32.2737H49.7263V29.7911H44.7611V24.9004H47.2437V22.4178H49.6518V24.8259ZM44.6866 17.3781H42.2785V14.97H44.6866V17.3781ZM32.3482 39.7959H37.2389V42.2041H32.3482V39.7959ZM39.7215 44.6866H37.3134V42.2785H39.7215V44.6866ZM37.2389 32.2737H34.8308V29.8656H37.2389V32.2737ZM44.6866 54.617H39.7959V47.2437H42.2041V49.7263H44.6866V52.2089H47.1692V54.617H44.6866ZM49.7263 52.2089H52.1344V54.617H49.7263V52.2089ZM62.0648 22.4178V29.7911H57.1741V27.3085H54.6915V24.9004H59.6567V22.4178H62.0648ZM59.5822 14.97V17.3781H57.1741V14.97H59.5822ZM54.617 14.97V17.3781H52.2089V14.97H54.617ZM49.6518 14.97V19.8607H47.2437V14.97H49.6518ZM42.2041 27.383V29.7911H39.7959V27.383H42.2041ZM37.2389 27.3085H34.8308V24.9004H37.2389V27.3085ZM27.3085 14.8955H24.9004V10.0048H27.3085V14.8955ZM29.8656 10.0048H32.2737V12.413H29.8656V10.0048ZM32.3482 14.97H34.7563V17.3781H32.3482V14.97ZM27.383 7.44777V5.03966H32.3482V2.55707H34.7563V5.03966H37.2389V7.44777H34.7563V9.93037H32.3482V7.44777H29.7911V9.93037H27.383V7.44777ZM24.8259 17.4526V19.8607H22.4178V14.97H24.8259V17.4526ZM19.9352 29.8656H22.3433V34.7563H19.9352V32.2737H17.4526V29.8656H19.9352ZM14.8955 44.6866H12.4874V42.2785H17.3781V44.6866H14.8955ZM24.8259 57.0996H22.4178V52.1344H17.4526V49.7263H24.8259V54.6915H27.3085V57.0996H24.8259ZM29.8656 54.617V52.1344H27.383V49.7263H34.7563V52.1344H32.2737V54.617H29.8656ZM32.3482 62.0648V59.6567H34.7563V62.1393H37.2389V64.6219H39.7215V67.03H37.2389V71.9952H29.8656V69.587H34.8308V64.5474H32.3482V62.0648ZM24.9004 77.0348H27.3085V79.4429H24.9004V77.0348ZM22.4178 74.4778V69.587H27.3085V71.9952H24.8259V76.9603H22.4178V74.4778ZM32.2737 76.9603V79.4429H29.8656V76.9603H27.383V74.5522H34.7563V76.9603H32.2737ZM47.2437 72.0696H49.6518V74.4778H47.2437V72.0696ZM74.5522 64.6219H76.9603V67.03H74.5522V64.6219ZM72.0696 71.9952V69.587H76.9603V71.9952H72.0696ZM74.4778 59.6567H76.9603V62.0648H74.4778V64.5474H72.0696V59.6567H74.4778ZM64.5474 62.1393H69.5126V69.5126H62.1393V62.1393H64.5474ZM59.5822 52.2089V64.5474H57.1741V62.0648H54.617V67.1045H59.5822V74.4778H57.0996V76.9603H54.6915V74.4778H52.2089V72.0696H57.1741V69.5126H52.2089V62.0648H44.6866V64.5474H42.2785V59.6567H44.7611V57.1741H52.1344V59.6567H54.6915V57.1741H57.1741V52.1344H52.2089V49.7263H54.6915V47.2437H57.0996V49.7263H59.5822V52.2089ZM62.0648 47.1692H57.1741V44.7611H64.5474V47.1692H62.0648ZM71.9952 47.2437V49.6518H69.587V47.2437H71.9952ZM74.5522 34.7563V32.3482H79.4429V34.7563H76.9603V37.2389H74.5522V34.7563Z" fill="#E21E32"/>
<path d="M67.1049 64.5479H64.5479V67.1049H67.1049V64.5479Z" fill="#E21E32"/>
<path d="M17.3781 0H0V17.3781H17.3781V0ZM14.8955 14.8955H2.48259V2.48259H14.8955V14.8955Z" fill="#E21E32"/>
<path d="M81.926 0H64.5479V17.3781H81.926V0ZM79.4434 14.8955H67.0304V2.48259H79.4434V14.8955Z" fill="#E21E32"/>
<path d="M0 81.926H17.3781V64.5479H0V81.926ZM2.48259 67.0304H14.8955V79.4434H2.48259V67.0304Z" fill="#E21E32"/>
<path d="M12.4126 4.96484H4.96484V12.4126H12.4126V4.96484Z" fill="#E21E32"/>
<path d="M76.9605 4.96484H69.5127V12.4126H76.9605V4.96484Z" fill="#E21E32"/>
<path d="M12.4126 69.5127H4.96484V76.9605H12.4126V69.5127Z" fill="#E21E32"/>
</g>
<defs>
<clipPath id="clip0_28493_1750">
<rect width="82" height="82" fill="white"/>
</clipPath>
</defs>
</svg>
